<svg width="14" height="14" viewBox="0 0 14 14" fill="none" xmlns="http://www.w3.org/2000/svg">
<path d="M11.2815 0.571477H7.24432C6.96599 0.559064 6.6886 0.611898 6.43432 0.725763C6.16005 0.837341 5.91409 1.00864 5.71432 1.22719L1.21432 5.79148C1.0049 5.98362 0.842185 6.2211 0.738608 6.48576C0.628227 6.74154 0.571289 7.01718 0.571289 7.29576C0.571289 7.57434 0.628227 7.84998 0.738608 8.10576C0.8486 8.36698 1.01043 8.60317 1.21432 8.80005L5.23861 12.85C5.64613 13.2223 6.17811 13.4286 6.73004 13.4286C7.30339 13.4411 7.85986 13.2341 8.28575 12.85L12.7729 8.28576C13.184 7.88698 13.4198 7.34127 13.4286 6.76862V2.71862C13.4158 2.15317 13.1856 1.61441 12.7858 1.21433C12.3786 0.82506 11.8442 0.596651 11.2815 0.571477ZM11.7958 6.76862C11.7983 6.83017 11.7883 6.8916 11.7662 6.9491C11.744 7.00661 11.7104 7.05895 11.6672 7.10291L7.11575 11.6672C7.07554 11.7159 7.02188 11.7517 6.96146 11.77C6.8977 11.7816 6.83237 11.7816 6.76861 11.77C6.705 11.7832 6.63936 11.7832 6.57575 11.77C6.51315 11.7485 6.45608 11.7134 6.40861 11.6672L2.38432 7.61719C2.33981 7.5763 2.30426 7.52663 2.27991 7.4713C2.25557 7.41598 2.24296 7.35621 2.24289 7.29576C2.25458 7.18385 2.30453 7.07939 2.38432 7.00005L6.92289 2.39719C7.01481 2.32323 7.12675 2.27846 7.24432 2.26862H11.4743C11.5408 2.28999 11.6021 2.32503 11.6543 2.37148C11.6987 2.41544 11.7337 2.46792 11.7572 2.52576C11.7693 2.58947 11.7693 2.65491 11.7572 2.71862L11.7958 6.76862Z" fill="#9D97FF"/>
<path d="M7.00004 5.47005C6.59425 5.47005 6.20509 5.63124 5.91816 5.91818C5.63123 6.20511 5.47004 6.59427 5.47004 7.00005C5.47004 7.40583 5.63123 7.79499 5.91816 8.08192C6.20509 8.36885 6.59425 8.53005 7.00004 8.53005C7.40174 8.51718 7.78347 8.35186 8.06766 8.06767C8.35185 7.78348 8.51717 7.40175 8.53004 7.00005C8.52668 6.59531 8.3644 6.20809 8.0782 5.92189C7.79199 5.63568 7.40478 5.47341 7.00004 5.47005Z" fill="#9D97FF"/>
</svg>
