<svg width="14" height="14" viewBox="0 0 14 14" fill="none" xmlns="http://www.w3.org/2000/svg">
<path d="M13.3064 11.1789L9.12475 6.99964L13.3032 2.81801C13.7851 2.33774 13.7851 1.56529 13.3048 1.08341L12.9166 0.694383C12.6884 0.460648 12.3762 0.333374 12.048 0.333374C12.0464 0.333374 12.0464 0.333374 12.0464 0.333374C11.7183 0.333374 11.4101 0.462249 11.1795 0.693583L6.99952 4.87681L2.81789 0.698386C2.33842 0.218107 1.56677 0.215705 1.08489 0.695984L0.695862 1.08101C0.461326 1.31074 0.333252 1.62292 0.333252 1.95031C0.333252 2.2793 0.462127 2.58908 0.693461 2.81962L4.87669 6.99964L0.697463 11.1813C0.215584 11.6615 0.215584 12.434 0.695862 12.9175L1.08409 13.3057C1.31382 13.5394 1.6252 13.6667 1.95339 13.6667C2.27998 13.6667 2.59216 13.5362 2.8219 13.3065L7.00112 9.12407L11.1811 13.3017C11.4181 13.541 11.7335 13.6619 12.0497 13.6619C12.3626 13.6619 12.6764 13.5426 12.9158 13.3041L13.304 12.9167C13.5393 12.6885 13.6666 12.3764 13.6666 12.0482C13.6682 11.72 13.5393 11.4102 13.308 11.1789H13.3064Z" fill="white"/>
</svg>
