<svg width="14" height="14" viewBox="0 0 14 14" fill="none" xmlns="http://www.w3.org/2000/svg">
<path d="M6.99999 13.4286C5.72853 13.4286 4.48564 13.0515 3.42846 12.3451C2.37129 11.6388 1.54732 10.6348 1.06076 9.46009C0.574197 8.28543 0.446889 6.99285 0.694937 5.74583C0.942985 4.49881 1.55525 3.35335 2.4543 2.4543C3.35335 1.55525 4.49881 0.942985 5.74583 0.694937C6.99285 0.446889 8.28543 0.574197 9.46009 1.06076C10.6348 1.54732 11.6388 2.37129 12.3451 3.42846C13.0515 4.48564 13.4286 5.72853 13.4286 6.99999C13.4286 7.8442 13.2623 8.68014 12.9392 9.46009C12.6161 10.24 12.1426 10.9487 11.5457 11.5457C10.9487 12.1426 10.24 12.6161 9.46009 12.9392C8.68014 13.2623 7.8442 13.4286 6.99999 13.4286ZM6.99999 1.99856C6.0108 1.99856 5.04382 2.29189 4.22134 2.84145C3.39886 3.39101 2.75781 4.17213 2.37927 5.08602C2.00072 5.99991 1.90168 7.00553 2.09466 7.97572C2.28764 8.9459 2.76398 9.83707 3.46344 10.5365C4.1629 11.236 5.05407 11.7123 6.02426 11.9053C6.99444 12.0983 8.00006 11.9992 8.91395 11.6207C9.82784 11.2422 10.609 10.6011 11.1585 9.77863C11.7081 8.95615 12.0014 7.98917 12.0014 6.99999C11.998 5.67457 11.47 4.40441 10.5328 3.46719C9.59556 2.52998 8.3254 2.00195 6.99999 1.99856Z" fill="#FF9A9A"/>
<path d="M4.85284 6.04856H9.14713C9.53284 6.04856 9.85427 6.47284 9.85427 6.99999C9.85427 7.52713 9.53284 7.95141 9.14713 7.95141H4.85284C4.46713 7.95141 4.1457 7.52713 4.1457 6.99999C4.1457 6.47284 4.42856 6.04856 4.85284 6.04856Z" fill="#FF9A9A"/>
</svg>
